<?xml version="1.0" encoding="iso-8859-1"?>
<!-- Uploaded to: SVG Repo, www.svgrepo.com, Generator: SVG Repo Mixer Tools -->
<svg height="800px" width="800px" version="1.1" id="Layer_1" xmlns="http://www.w3.org/2000/svg" xmlns:xlink="http://www.w3.org/1999/xlink" 
	 viewBox="0 0 506.38 506.38" xml:space="preserve">
<g transform="translate(1 1)">
	<path style="fill:#FF7474;" d="M89.807,90.234V56.1c10.24-8.533,30.72-14.507,30.72-14.507c9.387-1.707,18.773-2.56,29.013-2.56
		c28.16,0,54.613,7.68,76.8,22.187c0,0,19.627,9.387,25.6,20.48c26.453-26.453,62.293-42.667,102.4-42.667
		c80.213,0,145.067,64.853,145.067,145.067S431.14,397.434,251.94,499.834C72.74,397.434,4.473,264.314,4.473,184.1
		c0-28.16,7.68-53.76,21.333-75.947c0,0,8.533-13.653,24.747-23.04l0,0l5.12,5.12H89.807z"/>
	<path style="fill:#FFE079;" d="M473.807,431.567v51.2h-51.2L473.807,431.567z M89.807,56.1v34.133H55.673l-5.12-5.12l-46.08-46.08
		h34.133V4.9L89.807,56.1L89.807,56.1z"/>
</g>
<path style="fill:#51565F;" d="M252.94,505.1c-0.853,0-1.707,0-1.707-0.853C78.86,406.114,1.207,272.993,1.207,185.1
	c0-27.307,7.68-54.613,22.187-77.653c0.853-1.707,4.267-2.56,5.973-1.707c1.707,0.853,2.56,4.267,1.707,5.973
	C17.42,133.9,10.594,159.5,10.594,185.1c0,85.333,75.093,214.187,243.2,310.613c168.107-96.427,243.2-225.28,243.2-310.613
	c0-77.653-63.147-140.8-140.8-140.8c-55.467,0-105.813,32.427-128,82.773c-0.853,2.56-3.413,3.413-5.973,1.707
	c-2.56-0.853-3.413-3.413-1.707-5.973c23.893-53.76,77.653-87.893,136.533-87.893c81.92,0,149.333,67.413,149.333,149.333
	c0,87.893-76.8,221.013-250.027,319.147C254.647,505.1,253.793,505.1,252.94,505.1z M474.807,488.034h-51.2
	c-1.707,0-3.413-0.853-4.267-2.56s0-3.413,0.853-4.267l22.187-22.187l-34.133-34.133c-0.853-0.853-0.853-1.707-0.853-3.413
	s0-2.56,0.853-3.413c1.707-1.707,4.267-1.707,5.973,0l34.133,34.133l22.187-22.187c0.853-0.853,3.413-1.707,4.267-0.853
	c1.707,0.853,2.56,2.56,2.56,4.267v51.2C479.073,486.327,477.367,488.034,474.807,488.034z M433.847,479.5h36.693v-36.693
	L433.847,479.5z M201.74,214.967c-6.827,0-12.8-5.973-12.8-12.8c0-1.707,0.853-4.267,0.853-5.12L88.247,95.5H55.82
	c-0.853,0-2.56-0.853-3.413-0.853l-51.2-51.2C0.353,42.593-0.5,40.034,0.353,39.18c0.853-1.707,2.56-2.56,4.267-2.56h29.867V5.9
	c0-1.707,0.853-3.413,2.56-4.267c1.707-0.853,3.413,0,4.267,0.853l51.2,51.2c0.853,0.853,0.853,1.707,0.853,3.413v32.427
	l101.547,101.547c1.707-0.853,3.413-0.853,5.12-0.853c6.827,0,12.8,5.973,12.8,12.8C212.833,209.847,208.567,214.967,201.74,214.967
	z M58.38,86.967h28.16v-28.16L43.873,16.14v23.893c0,2.56-1.707,4.267-4.267,4.267H15.713L58.38,86.967z M445.793,163.767
	c-1.707,0-3.413-0.853-4.267-3.413c-8.533-29.867-32.427-53.76-61.44-61.44c-2.56-0.853-3.413-3.413-2.56-5.12
	c0.853-1.707,3.413-3.413,5.12-2.56c32.427,9.387,58.88,34.987,67.413,67.413c0.853,2.56-0.853,4.267-2.56,5.12
	C446.647,163.767,445.793,163.767,445.793,163.767z M227.34,66.487c-0.853,0-1.707,0-2.56-0.853
	c-29.867-18.773-67.413-25.6-102.4-18.773c-2.56,0.853-4.267-0.853-5.12-3.413c-0.853-2.56,0.853-4.267,3.413-5.12
	c36.693-7.68,76.8,0,108.373,19.627c1.707,0.853,2.56,4.267,1.707,5.973C229.9,65.634,229.047,66.487,227.34,66.487z"/>
</svg>