<?xml version="1.0" encoding="iso-8859-1"?>
<!-- Uploaded to: SVG Repo, www.svgrepo.com, Generator: SVG Repo Mixer Tools -->
<svg height="800px" width="800px" version="1.1" id="Layer_1" xmlns="http://www.w3.org/2000/svg" xmlns:xlink="http://www.w3.org/1999/xlink" 
	 viewBox="0 0 511.999 511.999" xml:space="preserve">
<path style="fill:#CB2E3E;" d="M339.853,8.192c-2.843,0-5.654,0.12-8.432,0.37l-75.395,327.506
	c2.767-1.503,179.723-98.707,179.723-231.98C435.75,51.124,392.818,8.192,339.853,8.192z"/>
<path style="fill:#FF3B3B;" d="M331.421,8.562c40.143,4.216,71.647,45.372,71.647,95.526c0,133.142-144.504,230.28-147.042,231.98
	c-0.033,0.022-179.777-97.661-179.777-231.98c0-52.965,42.932-95.897,95.897-95.897c36.101,0,67.497,19.99,83.848,49.479
	C271.06,30.502,298.893,11.395,331.421,8.562z"/>
<g>
	<circle style="fill:#972041;" cx="233.156" cy="238.026" r="8.17"/>
	<circle style="fill:#972041;" cx="328.398" cy="130.723" r="8.17"/>
	<circle style="fill:#972041;" cx="200.475" cy="205.345" r="8.17"/>
</g>
<path style="fill:#FF3B3B;" d="M256.038,336.09l16.33,54.446h16.34C288.707,363.52,256.539,336.493,256.038,336.09z"/>
<path style="fill:#FF6761;" d="M272.367,390.536h-49.021c0-27.234,32.681-54.468,32.681-54.468
	C256.539,336.918,272.367,363.727,272.367,390.536z"/>
<path d="M339.854,0c-33.327,0-64.393,16.016-83.855,42.534C236.538,16.016,205.472,0,172.145,0
	C114.763,0,68.078,46.684,68.078,104.067c0,32.141,9.842,64.818,29.254,97.124c15.313,25.487,36.6,50.811,63.27,75.268
	c42.537,39.009,84.456,62.882,90.743,66.373c7.41,6.336,23.541,23.062,28.002,39.534H232.64c1.403-5.216,4.084-10.84,8.02-16.809
	c2.485-3.767,1.444-8.835-2.321-11.318c-3.767-2.484-8.835-1.446-11.318,2.321c-7.877,11.944-11.871,23.374-11.871,33.975
	c0,4.512,3.658,8.17,8.17,8.17h24.511v105.123c0,4.512,3.658,8.17,8.17,8.17c4.512,0,8.17-3.658,8.17-8.17V398.706h24.51
	c4.512,0,8.17-3.658,8.17-8.17c0-21.502-16.742-42.066-27.285-52.888c15.799-9.51,48.628-30.74,81.832-61.188
	c26.67-24.457,47.957-49.782,63.27-75.268c19.411-32.305,29.254-64.983,29.254-97.124C443.921,46.684,397.236,0,339.854,0z
	 M340.608,264.181c-36.176,33.227-72.818,55.626-84.609,62.487c-11.79-6.861-48.434-29.26-84.609-62.487
	c-39.676-36.442-86.971-93.803-86.971-160.114c0-48.372,39.353-87.726,87.726-87.726c31.834,0,61.228,17.348,76.71,45.274
	c1.44,2.597,4.176,4.209,7.146,4.209c2.971,0,5.706-1.611,7.146-4.209c15.479-27.926,44.872-45.274,76.706-45.274
	c48.372,0,87.726,39.354,87.726,87.726C427.58,170.378,380.285,227.739,340.608,264.181z"/>
</svg>